<?xml version="1.0" encoding="UTF-8"?>
<svg version="1.1" xmlns="http://www.w3.org/2000/svg" viewBox="370 295 280 415" width="280" height="415">
<path d="M0 0 C0.33 0 0.66 0 1 0 C1.01458252 0.67353516 1.02916504 1.34707031 1.04418945 2.04101562 C2.14342004 47.62606918 20.60692428 80.82427464 49.63818359 115.37060547 C51.56569904 117.67685109 53.44069848 120.02343577 55.3125 122.375 C57.12728715 124.65193791 58.94226502 126.92837294 60.76953125 129.1953125 C62.05980913 130.79797344 63.34457057 132.40508485 64.625 134.015625 C65.90866875 135.62865613 67.19447662 137.24004116 68.4921875 138.84179688 C92.29153388 168.24936244 112.73792265 199.91282809 110 239 C108.22973541 253.94690405 102.07319844 267.77792352 92 279 C91.29488281 279.79792969 90.58976563 280.59585937 89.86328125 281.41796875 C79.08809039 292.90556892 63.34471822 304.23472783 47.15625 305.23828125 C13.62165932 306.04722172 -15.83753656 292.82447687 -40 270 C-41.12535156 268.97132813 -41.12535156 268.97132813 -42.2734375 267.921875 C-64.24388372 247.10776806 -75.44739342 216.07518473 -76.40258789 186.19897461 C-77.21847564 121.66396511 -35.6587967 52.82882498 -1 1 C-0.67 0.67 -0.34 0.34 0 0 Z " fill="#2365A3" transform="translate(454,398)"/>
<path d="M0 0 C0.20753906 0.77859375 0.41507813 1.5571875 0.62890625 2.359375 C12.21325185 44.43139165 33.55530584 82.16268403 56.6953125 118.87109375 C65.83707451 133.3764373 74.58341299 148.06137769 83 163 C83.54817383 163.97243652 84.09634766 164.94487305 84.66113281 165.94677734 C108.35496098 208.18265636 129.54747175 254.98514234 116.39794922 304.25585938 C110.11663104 326.33222259 98.88209741 344.53418079 83 361 C82.39542969 361.65613281 81.79085937 362.31226563 81.16796875 362.98828125 C64.72467858 380.39176354 41.31557995 391.67467156 18 396 C18.70511719 395.29875 19.41023437 394.5975 20.13671875 393.875 C40.90810731 373.06708068 54.01158332 349.77120534 54.375 319.8125 C54.35954406 309.71001258 53.10304851 300.60197506 50 291 C49.67854004 290.00178223 49.67854004 290.00178223 49.35058594 288.98339844 C44.35771055 273.93209577 37.278289 259.86039051 28 247 C27.25339111 245.95803467 27.25339111 245.95803467 26.49169922 244.89501953 C18.83975797 234.25287245 10.83696619 223.96678207 2.50976562 213.84814453 C-1.23884461 209.25937035 -4.86919612 204.57661733 -8.51074219 199.90283203 C-10.14687345 197.81233907 -11.79576656 195.73226543 -13.4453125 193.65234375 C-37.78909071 162.84462226 -56.90971398 130.67075543 -54 90 C-50.51782953 63.13621558 -36.06361998 39.43936584 -19 19 C-18.51966309 18.41814941 -18.03932617 17.83629883 -17.54443359 17.23681641 C-16.09818765 15.48604707 -14.64518054 13.74125747 -13.1875 12 C-12.75566406 11.48397217 -12.32382812 10.96794434 -11.87890625 10.4362793 C-3.01172384 0 -3.01172384 0 0 0 Z " fill="#9DC545" transform="translate(529,305)"/>
</svg>
