<?xml version="1.0" encoding="UTF-8"?>
<svg version="1.1" xmlns="http://www.w3.org/2000/svg" viewBox="180 220 680 570" width="680" height="570">
<path d="M0 0 C1.2231929 3.7448521 0.99349584 7.21463723 0.875 11.125 C0.53648051 44.2466598 16.74993821 73.12601113 36 99 C36.46293457 99.62342285 36.92586914 100.2468457 37.40283203 100.88916016 C40.20722874 104.64146208 43.08335286 108.33430484 46 112 C46.48210937 112.60682617 46.96421875 113.21365234 47.4609375 113.83886719 C51.63683742 119.0878886 55.8371855 124.31711942 60.046875 129.5390625 C62.04074353 132.01861695 64.02161852 134.50806653 66 137 C66.49725586 137.62181152 66.99451172 138.24362305 67.50683594 138.88427734 C84.20856969 159.81263199 102.46126078 183.24054906 108 210 C108.17007568 210.67949707 108.34015137 211.35899414 108.51538086 212.05908203 C109.83937029 217.47353594 110.3531551 222.55699342 110.3125 228.125 C110.30686035 228.94830811 110.3012207 229.77161621 110.29541016 230.61987305 C109.94547574 248.53408988 104.26732028 264.04129553 93 278 C92.50757813 278.64453125 92.01515625 279.2890625 91.5078125 279.953125 C81.58503517 292.39864233 62.87288932 304.31599938 46.89453125 306.40625 C14.2107255 307.38067402 -17.72279557 291.91032196 -41 270 C-41.59167969 269.47277344 -42.18335938 268.94554687 -42.79296875 268.40234375 C-57.58865188 254.66098483 -66.3563261 236.05286809 -72 217 C-72.5259375 215.25009766 -72.5259375 215.25009766 -73.0625 213.46484375 C-85.7094592 166.72379036 -64.49078527 116.36576842 -43.26123047 75.44433594 C-41.70140664 72.42130919 -40.16639761 69.38600714 -38.62890625 66.3515625 C-27.00327282 43.48341723 -14.2381569 21.35723534 0 0 Z " fill="#2366A3" transform="translate(454,336)"/>
<path d="M0 0 C0.66 0 1.32 0 2 0 C2.13986328 0.55647217 2.27972656 1.11294434 2.42382812 1.6862793 C12.98669169 43.21174895 33.44077381 79.41148187 55.88671875 115.58496094 C66.59078497 132.86150297 77.09887978 150.24875269 87 168 C87.53077148 168.94262695 88.06154297 169.88525391 88.60839844 170.85644531 C96.670743 185.20789149 103.87150726 199.71638402 110 215 C110.30518555 215.75829102 110.61037109 216.51658203 110.92480469 217.29785156 C115.62644473 229.19532733 118.46613244 241.4809185 121 254 C121.20109375 254.9590625 121.4021875 255.918125 121.609375 256.90625 C124.60612539 280.64051311 120.22676786 304.45956142 110 326 C109.70899414 326.61488281 109.41798828 327.22976563 109.11816406 327.86328125 C98.40267505 350.13335578 81.06847734 368.23316345 60 381 C59.39897461 381.37060547 58.79794922 381.74121094 58.17871094 382.12304688 C50.40531273 386.83910744 42.35466639 390.14516699 33.75 393.0625 C32.3729187 393.52994629 32.3729187 393.52994629 30.96801758 394.00683594 C24.38552998 396.12850999 24.38552998 396.12850999 21 395 C21.75023437 394.29617188 22.50046875 393.59234375 23.2734375 392.8671875 C42.75798861 374.22477886 55.51489789 350.99084733 56.33642578 323.58447266 C56.80448559 290.70771459 41.05564409 262.7539571 22 237 C21.54093262 236.37899414 21.08186523 235.75798828 20.60888672 235.11816406 C15.2449178 227.91529698 9.56438401 220.96795992 3.88867188 214.01074219 C-26.67686463 176.53114484 -55.67926471 139.93783523 -52 89 C-47.42689526 56.83383738 -25.64280684 25.75602809 -2.75 3.77734375 C-0.92444046 2.10626788 -0.92444046 2.10626788 0 0 Z " fill="#9BC642" transform="translate(527,243)"/>
<path d="M0 0 C0.80408798 -0.00807175 1.60817596 -0.01614349 2.43663025 -0.02445984 C4.15247427 -0.03833626 5.86834631 -0.04904238 7.58422852 -0.05688477 C9.31120081 -0.06826435 11.03814203 -0.08848558 12.76489258 -0.1184082 C29.58511006 -0.40984358 45.20623699 0.7205004 57.94921875 12.96484375 C66.22077322 21.93251914 68.5991694 32.41365158 68.3984375 44.38671875 C67.66320184 55.89374034 63.92737544 65.94763218 55.52734375 74.05078125 C45.97613746 81.8088492 33.64870723 84.58252228 21.62109375 84.43359375 C20.30631042 84.42934891 20.30631042 84.42934891 18.96496582 84.42501831 C16.19394676 84.41391617 13.4232634 84.38883079 10.65234375 84.36328125 C8.76172345 84.35323854 6.87109804 84.34411496 4.98046875 84.3359375 C0.37096646 84.3140096 -4.23828819 84.2795497 -8.84765625 84.23828125 C-8.87077937 73.4337004 -8.88857118 62.62912539 -8.89946842 51.82452488 C-8.90469732 46.80805655 -8.91179508 41.7916051 -8.9230957 36.77514648 C-8.93392435 31.93818431 -8.93993304 27.10123841 -8.94253349 22.26426506 C-8.94438778 20.4145984 -8.94800847 18.56493268 -8.95338631 16.7152729 C-8.96059645 14.13381111 -8.9616472 11.55241743 -8.96118164 8.97094727 C-8.96477692 8.19843124 -8.96837219 7.42591522 -8.97207642 6.62998962 C-8.95731789 -0.88258456 -6.78704091 0.06462003 0 0 Z " fill="#2A629E" transform="translate(204.84765625,693.76171875)"/>
<path d="M0 0 C6.2370531 4.43856829 9.99064082 10.6649499 12 18 C13.26969879 29.05974475 12.30877367 39.77399776 5.3125 48.875 C-0.36321349 54.86682918 -8.75602179 58.87685696 -16.98828125 59.3359375 C-28.77116839 59.58341464 -36.42132274 58.05037204 -45.27734375 49.79296875 C-52.62668026 42.14365932 -53.44823933 34.25607278 -53.43383789 24.19042969 C-53.22896856 15.36659699 -50.61924592 9.62815264 -44.6875 3.125 C-32.80365048 -7.87664235 -13.48189019 -8.21454705 0 0 Z " fill="#29629F" transform="translate(337,720)"/>
<path d="M0 0 C5.61 0 11.22 0 17 0 C22.63937728 13.53450548 27.64381927 27.23173377 32.5 41.0625 C32.82067444 41.9709668 33.14134888 42.87943359 33.47174072 43.81542969 C34.39280144 46.42848819 35.30697346 49.0438457 36.21875 51.66015625 C36.4996347 52.45627823 36.78051941 53.25240021 37.06991577 54.07264709 C38.13881095 57.16389804 39 59.70453492 39 63 C39.66 63 40.32 63 41 63 C41.13378052 61.59693604 41.13378052 61.59693604 41.27026367 60.16552734 C42.01591575 54.99412942 43.88062188 50.23658292 45.67578125 45.3515625 C46.04221237 44.33959808 46.40864349 43.32763367 46.78617859 42.28500366 C47.56054291 40.15074971 48.33818383 38.01768209 49.11889648 35.88574219 C50.30506109 32.64532197 51.48052174 29.40117584 52.65429688 26.15625 C53.41082783 24.07529151 54.16796951 21.99455492 54.92578125 19.9140625 C55.2738533 18.95440582 55.62192535 17.99474915 55.98054504 17.00601196 C58.10287887 11.22353988 60.43882498 5.60241362 63 0 C68.61 0 74.22 0 80 0 C78.8754428 6.74734322 78.8754428 6.74734322 77.49731445 10.27001953 C77.19029099 11.06447479 76.88326752 11.85893005 76.56694031 12.67745972 C76.23160782 13.52897614 75.89627533 14.38049255 75.55078125 15.2578125 C74.82071588 17.14209364 74.09108034 19.02654136 73.36181641 20.91113281 C72.78346039 22.39861023 72.78346039 22.39861023 72.19342041 23.9161377 C70.15614684 29.18056179 68.16463893 34.46226193 66.16796875 39.7421875 C65.34202039 41.92065767 64.5158473 44.09904265 63.68945312 46.27734375 C62.42704564 49.60566636 61.16509869 52.93415991 59.90454102 56.26318359 C58.66040753 59.54838071 57.41436467 62.83284819 56.16796875 66.1171875 C55.79294724 67.10886932 55.41792572 68.10055115 55.03153992 69.12228394 C54.67719376 70.05501129 54.3228476 70.98773865 53.95776367 71.94873047 C53.65102219 72.75809052 53.3442807 73.56745056 53.02824402 74.40133667 C51.75157967 77.62782841 50.36685574 80.81066994 49 84 C43.06 84 37.12 84 31 84 C26.49984111 74.99968222 26.49984111 74.99968222 25.14404297 71.3894043 C24.835952 70.57534119 24.52786102 69.76127808 24.21043396 68.92254639 C23.89091263 68.06509827 23.5713913 67.20765015 23.2421875 66.32421875 C22.89708633 65.40868225 22.55198517 64.49314575 22.19642639 63.54986572 C21.08485527 60.59738605 19.97960969 57.64259046 18.875 54.6875 C18.11294504 52.65624378 17.35065561 50.62507552 16.58813477 48.59399414 C15.08205752 44.57989878 13.57883787 40.56474942 12.07763672 36.54882812 C10.53543299 32.42535286 8.98399047 28.30552305 7.4239502 24.18876648 C6.25684153 21.10687307 5.09770262 18.02199961 3.9375 14.9375 C3.52677246 13.85879639 3.11604492 12.78009277 2.69287109 11.66870117 C2.32887207 10.69392822 1.96487305 9.71915527 1.58984375 8.71484375 C1.27909912 7.89105225 0.96835449 7.06726074 0.64819336 6.21850586 C0 4 0 4 0 0 Z " fill="#A3CA4D" transform="translate(534,694)"/>
<path d="M0 0 C5.7126487 4.72180385 8.49074314 11.14950756 9.25814819 18.45877075 C9.34399494 21.07310758 9.33825913 23.6698468 9.29296875 26.28515625 C9.28872391 27.22685165 9.28447906 28.16854706 9.28010559 29.13877869 C9.26346216 32.11365718 9.22583772 35.08783014 9.1875 38.0625 C9.1724346 40.0930891 9.15874946 42.12368893 9.14648438 44.15429688 C9.11360578 49.10313181 9.0619244 54.05144675 9 59 C4.71 59 0.42 59 -4 59 C-4.99 56.69 -5.98 54.38 -7 52 C-7.845625 52.763125 -8.69125 53.52625 -9.5625 54.3125 C-16.30883786 59.79682085 -21.98773806 60.61046227 -30.61328125 60.41796875 C-36.85887335 59.6471748 -40.31293427 56.86009811 -44.4375 52.3125 C-48.07010368 46.93624655 -47.54039695 41.33036424 -47 35 C-44.3516486 29.06769286 -39.55896244 25.3789549 -33.5703125 23.05859375 C-25.01875196 20.36836118 -16.91252259 19.8549499 -8 20 C-8.93436373 14.9951872 -8.93436373 14.9951872 -12.15234375 11.29296875 C-17.81373104 8.72243488 -25.40600259 8.89647395 -31.328125 10.71484375 C-32.89602379 11.45448296 -34.44942003 12.22471002 -36 13 C-38.0703125 12.83203125 -38.0703125 12.83203125 -40 12 C-41.046875 10.2578125 -41.046875 10.2578125 -41.75 8.125 C-41.99234375 7.42632813 -42.2346875 6.72765625 -42.484375 6.0078125 C-43 4 -43 4 -43 1 C-41.62929219 0.34510627 -40.25316556 -0.29844963 -38.875 -0.9375 C-38.10929688 -1.29714844 -37.34359375 -1.65679688 -36.5546875 -2.02734375 C-26.17266556 -5.98013192 -9.41842292 -6.27894861 0 0 Z " fill="#A3CA4E" transform="translate(751,719)"/>
<path d="M0 0 C26.79283887 0 26.79283887 0 36 8 C42.49641415 16.25787968 42.87890338 24.86616852 42 35 C40.63826461 41.73061566 37.61563911 46.05874707 32.48828125 50.52734375 C21.52585266 57.01531169 13.30487445 55 0 55 C0 36.85 0 18.7 0 0 Z " fill="#F9FAFB" transform="translate(213,708)"/>
<path d="M0 0 C1.6171875 0.94921875 1.6171875 0.94921875 2.6171875 3.94921875 C1.83984375 6.4296875 1.83984375 6.4296875 0.6796875 9.13671875 C0.10927734 10.48830078 0.10927734 10.48830078 -0.47265625 11.8671875 C-0.77300781 12.55425781 -1.07335937 13.24132812 -1.3828125 13.94921875 C-4.14557427 13.42653409 -6.7089001 12.84052288 -9.3828125 11.94921875 C-11.73473643 11.8289658 -14.09034781 11.7738954 -16.4453125 11.76171875 C-17.69441406 11.74753906 -18.94351562 11.73335937 -20.23046875 11.71875 C-23.48046337 11.6110927 -23.48046337 11.6110927 -25.3828125 13.94921875 C-25.54968698 16.53276093 -25.54968698 16.53276093 -25.3828125 18.94921875 C-20.00407737 21.18639177 -14.63290989 23.21219949 -9.0703125 24.94921875 C-2.42660984 27.1382336 1.3695422 29.65184559 4.6171875 35.94921875 C5.56818701 41.69484077 5.47696255 47.30871511 2.5546875 52.44921875 C-1.71956797 58.25257406 -7.51654752 60.28038401 -14.3828125 61.94921875 C-17.15979013 62.25965876 -19.90237542 62.32990444 -22.6953125 62.32421875 C-23.43861816 62.32405762 -24.18192383 62.32389648 -24.94775391 62.32373047 C-32.43607764 62.16891202 -38.16745902 60.09278774 -44.3828125 55.94921875 C-43.93019892 54.50990758 -43.47048271 53.07282876 -43.0078125 51.63671875 C-42.75257813 50.83621094 -42.49734375 50.03570313 -42.234375 49.2109375 C-41.3828125 46.94921875 -41.3828125 46.94921875 -39.3828125 43.94921875 C-34.3828125 45.94921875 -34.3828125 45.94921875 -32.15234375 47 C-28.74844055 48.16664101 -25.85140407 48.25027419 -22.2578125 48.26171875 C-21.03835938 48.27847656 -19.81890625 48.29523437 -18.5625 48.3125 C-15.42768959 48.21324684 -15.42768959 48.21324684 -13.4609375 46.5859375 C-12.16963316 44.92706631 -12.16963316 44.92706631 -12.2578125 42.44921875 C-13.20345087 39.68211385 -13.20345087 39.68211385 -16.1953125 38.38671875 C-18.53057058 37.52483999 -20.89156665 36.79156692 -23.26953125 36.0546875 C-30.66050199 33.72704176 -36.55921811 31.77473373 -41.3203125 25.32421875 C-43.19036327 19.38405747 -43.70500701 12.80640937 -40.8828125 7.07421875 C-32.54219982 -5.36196359 -12.52795294 -4.09651056 0 0 Z " fill="#2A64A1" transform="translate(402.3828125,717.05078125)"/>
<path d="M0 0 C1.6171875 1.046875 1.6171875 1.046875 2.48046875 2.859375 C2.65618522 5.6708385 1.90379715 7.27446725 0.6796875 9.796875 C0.10927734 10.99570312 0.10927734 10.99570312 -0.47265625 12.21875 C-0.77300781 12.82203125 -1.07335937 13.4253125 -1.3828125 14.046875 C-2.37539063 13.72074219 -3.36796875 13.39460937 -4.390625 13.05859375 C-8.37858263 11.92046881 -12.10506273 11.81414703 -16.2578125 11.859375 C-18.23394531 11.86904297 -18.23394531 11.86904297 -20.25 11.87890625 C-23.24844092 11.68975849 -23.24844092 11.68975849 -24.3828125 13.046875 C-24.42362033 15.04645864 -24.42535606 17.04732754 -24.3828125 19.046875 C-20.31034623 21.21763405 -16.461638 22.67851812 -12.0078125 23.859375 C-5.72006457 25.73492038 0.11882561 28.17524134 3.796875 33.875 C5.74331217 39.02842414 5.63699298 45.33322951 3.70703125 50.46875 C0.50123979 55.95261192 -3.48577876 59.0596578 -9.53515625 61.12109375 C-20.28243197 63.70698649 -31.23059552 63.02998646 -41.29296875 58.43359375 C-43.3828125 57.046875 -43.3828125 57.046875 -44.3828125 54.046875 C-43.38671875 51.56640625 -43.38671875 51.56640625 -41.9453125 48.859375 C-41.47222656 47.95832031 -40.99914062 47.05726563 -40.51171875 46.12890625 C-40.13917969 45.44183594 -39.76664062 44.75476563 -39.3828125 44.046875 C-36.76573569 44.550159 -34.94737637 45.28615232 -32.58203125 46.5859375 C-28.87993224 48.27651751 -26.24744135 48.44793371 -22.1953125 48.421875 C-20.37966797 48.43347656 -20.37966797 48.43347656 -18.52734375 48.4453125 C-15.42320367 48.30566544 -15.42320367 48.30566544 -13.47265625 46.67578125 C-12.18904743 45.03239805 -12.18904743 45.03239805 -12.1328125 42.609375 C-13.89185812 39.00333148 -16.14948378 38.39206495 -19.78125 36.93359375 C-22.31681159 36.0693708 -24.85093161 35.39702647 -27.4453125 34.734375 C-32.9221951 33.16222773 -36.68507686 30.35473702 -40.3828125 26.046875 C-42.63774661 21.63096237 -43.12525168 16.94887731 -42.3828125 12.046875 C-39.84101974 5.90420917 -36.01948548 2.4960096 -30.3828125 -0.953125 C-21.39260896 -3.94985951 -8.90144934 -2.77207765 0 0 Z " fill="#2B64A1" transform="translate(493.3828125,716.953125)"/>
<path d="M0 0 C1.90072266 0.02126953 1.90072266 0.02126953 3.83984375 0.04296875 C5.74443359 0.05263672 5.74443359 0.05263672 7.6875 0.0625 C10.77734375 0.23046875 10.77734375 0.23046875 11.77734375 1.23046875 C11.85059811 3.92915925 11.86956726 6.59549431 11.83984375 9.29296875 C11.81921875 11.91234375 11.79859375 14.53171875 11.77734375 17.23046875 C17.05734375 17.23046875 22.33734375 17.23046875 27.77734375 17.23046875 C27.77734375 21.85046875 27.77734375 26.47046875 27.77734375 31.23046875 C22.49734375 31.23046875 17.21734375 31.23046875 11.77734375 31.23046875 C11.85143541 35.43069958 11.93433108 39.62883428 12.03979492 43.828125 C12.07299169 45.25574789 12.10104006 46.68350038 12.1237793 48.11132812 C12.15742388 50.1672269 12.20973937 52.22194387 12.265625 54.27734375 C12.29180908 55.51323242 12.31799316 56.74912109 12.3449707 58.02246094 C12.80156068 61.41014713 13.34431108 62.86711721 15.77734375 65.23046875 C18.51596625 65.71387307 18.51596625 65.71387307 21.46484375 65.48046875 C22.45871094 65.444375 23.45257812 65.40828125 24.4765625 65.37109375 C25.23582031 65.3246875 25.99507812 65.27828125 26.77734375 65.23046875 C28.19976399 69.675532 29.32649683 73.50775224 28.77734375 78.23046875 C23.34867221 81.84958311 15.16493191 81.05345773 8.77734375 80.23046875 C5.54562244 79.05529737 3.24722242 77.6002172 0.77734375 75.23046875 C0.04197388 74.57437622 0.04197388 74.57437622 -0.70825195 73.9050293 C-7.10877622 66.8276158 -5.57245353 54.99405192 -5.41015625 46.10546875 C-5.39507393 44.65756609 -5.38139183 43.20964813 -5.36914062 41.76171875 C-5.33643474 38.25097881 -5.28485136 34.74082476 -5.22265625 31.23046875 C-8.52265625 31.23046875 -11.82265625 31.23046875 -15.22265625 31.23046875 C-15.22265625 26.94046875 -15.22265625 22.65046875 -15.22265625 18.23046875 C-12.00814356 16.6232124 -8.78653089 17.1729869 -5.22265625 17.23046875 C-5.24585938 16.17085937 -5.2690625 15.11125 -5.29296875 14.01953125 C-5.31172569 12.63151745 -5.32992597 11.24349605 -5.34765625 9.85546875 C-5.36441406 9.15679688 -5.38117187 8.458125 -5.3984375 7.73828125 C-5.41609892 5.90149389 -5.32568886 4.06444912 -5.22265625 2.23046875 C-3.22265625 0.23046875 -3.22265625 0.23046875 0 0 Z " fill="#A4CA50" transform="translate(667.22265625,698.76953125)"/>
<path d="M0 0 C5.28 0 10.56 0 16 0 C17.82238662 1.82238662 17.11997696 4.34756083 17.12442017 6.7724762 C17.12082489 7.60109665 17.11722961 8.4297171 17.11352539 9.28344727 C17.11367142 10.15166107 17.11381744 11.01987488 17.1139679 11.91439819 C17.11326846 14.79842586 17.10547463 17.6823898 17.09765625 20.56640625 C17.09579218 22.56037867 17.09436823 24.55435155 17.09336853 26.54832458 C17.08954248 31.80745702 17.07971145 37.06656203 17.06866455 42.32568359 C17.0584523 47.68782175 17.05387131 53.04996431 17.04882812 58.41210938 C17.03808926 68.94142027 17.02049176 79.47070357 17 90 C11.39 90 5.78 90 0 90 C0 60.3 0 30.6 0 0 Z " fill="#A5CA51" transform="translate(777,688)"/>
<path d="M0 0 C0.70253906 0.00386719 1.40507812 0.00773438 2.12890625 0.01171875 C2.83144531 0.00785156 3.53398437 0.00398437 4.2578125 0 C9.50229247 0.01010497 9.50229247 0.01010497 10.62890625 1.13671875 C10.72281921 3.03915637 10.74634283 4.94510334 10.74243164 6.84985352 C10.74235611 8.07104385 10.74228058 9.29223419 10.74220276 10.5504303 C10.73709536 11.89299561 10.73187936 13.2355605 10.7265625 14.578125 C10.72469824 15.94433033 10.72327438 17.31053632 10.72227478 18.67674255 C10.71845019 22.2787357 10.70862042 25.88068875 10.6975708 29.48266602 C10.68735541 33.1557562 10.68277689 36.82885284 10.67773438 40.50195312 C10.66699809 47.71356209 10.64940178 54.9251297 10.62890625 62.13671875 C5.01890625 62.13671875 -0.59109375 62.13671875 -6.37109375 62.13671875 C-6.39364848 54.20057665 -6.41201098 46.26445929 -6.42290592 38.3282938 C-6.42813383 34.64357377 -6.4352298 30.95887672 -6.4465332 27.27416992 C-6.45736537 23.72101044 -6.46337128 20.16787312 -6.46597099 16.61469841 C-6.46782465 15.25626209 -6.47144413 13.89782704 -6.47682381 12.5394001 C-6.4840385 10.64289652 -6.48450184 8.74637082 -6.48461914 6.84985352 C-6.48683975 5.76841568 -6.48906036 4.68697784 -6.49134827 3.57276917 C-6.26825067 -0.94662026 -3.97949467 0.00766762 0 0 Z " fill="#2C649F" transform="translate(426.37109375,715.86328125)"/>
<path d="M0 0 C5.61 0 11.22 0 17 0 C17 20.13 17 40.26 17 61 C11.39 61 5.78 61 0 61 C0 40.87 0 20.74 0 0 Z " fill="#A3C84F" transform="translate(624,717)"/>
<path d="M0 0 C3.82845352 2.84908169 6.06668412 5.47407769 7.6875 10 C8.62240396 16.47647182 8.87860748 22.86277875 5.5625 28.6875 C3.0220164 31.99225165 0.7464276 33.77466337 -3.3125 35 C-8.32290253 35.64571256 -12.09300122 35.58716608 -16.6875 33.375 C-20.77162139 29.67984255 -23.08348946 26.67042979 -23.84375 21.125 C-23.85424618 19.7500006 -23.84350804 18.37468979 -23.8125 17 C-23.82796875 16.31421875 -23.8434375 15.6284375 -23.859375 14.921875 C-23.82039403 9.81536829 -22.48128539 6.93486537 -19.3125 3 C-13.49796118 -2.26077322 -7.21582028 -2.17836084 0 0 Z " fill="#F9FBFB" transform="translate(324.3125,730)"/>
<path d="M0 0 C0.42034404 6.09498863 0.07814737 9.12887953 -4 14 C-8.0155755 17.52883908 -11.62709313 18.37242448 -16.9921875 18.2734375 C-20.35700588 17.81519375 -21.87703936 16.58735828 -24 14 C-24.77050171 9.76224059 -24.52623577 7.81657275 -22.1875 4.1875 C-15.6869792 -0.27364172 -7.67722065 -0.28970644 0 0 Z " fill="#FBFCF6" transform="translate(744,749)"/>
<path d="M0 0 C3.0625 1.375 3.0625 1.375 5 4 C5.64103173 7.44554552 5.63646483 10.55391565 5 14 C3.11484777 16.57637471 1.80665143 17.59667428 -1 19 C-8.13230769 19.70153846 -8.13230769 19.70153846 -11.9375 16.625 C-14.91206287 12.83919272 -15.47335226 10.82819303 -15 6 C-10.85765368 -0.21351948 -7.13605757 -0.82433769 0 0 Z " fill="#2B63A0" transform="translate(433,688)"/>
<path d="M0 0 C2.87029869 1.79393668 4.49131638 2.98263276 6 6 C6.13863612 9.12232656 5.8599966 11.9926827 5 15 C1.82805128 18.09642614 -0.19112808 18.88647412 -4.5625 19.5 C-8.55600168 18.91912703 -10.17522831 17.82477169 -13 15 C-14.61707958 11.76584084 -14.56822376 8.49624735 -14 5 C-10.4338531 -0.52177585 -6.13886453 -1.23444558 0 0 Z " fill="#A5CA4E" transform="translate(637,688)"/>
</svg>
