<?xml version="1.0" encoding="UTF-8"?>
<svg version="1.1" xmlns="http://www.w3.org/2000/svg" viewBox="200 630 650 100" width="650" height="100">
<path d="M0 0 C0.79849365 -0.0033284 1.5969873 -0.0066568 2.41967773 -0.01008606 C4.11783267 -0.01516274 5.81599764 -0.01749416 7.51416016 -0.01733398 C10.08643681 -0.0194988 12.65826933 -0.03758546 15.23046875 -0.05664062 C16.88281104 -0.05957892 18.53515536 -0.06156079 20.1875 -0.0625 C21.32711182 -0.07327827 21.32711182 -0.07327827 22.48974609 -0.08427429 C35.14402944 -0.03143858 46.60368254 3.74854653 55.85546875 12.51953125 C65.14791277 23.36338158 65.91419221 34.99255775 65.34277344 48.57910156 C64.42060535 59.54173651 58.49477911 67.68601284 50.359375 74.6875 C38.50336922 83.21866938 23.05486119 82.6971862 9.1875 82.41796875 C7.42515083 82.39784431 5.6627791 82.3796042 3.90039062 82.36328125 C-0.35864464 82.31982197 -4.61656272 82.25113511 -8.875 82.16796875 C-8.89812343 71.62415563 -8.91591509 61.0803485 -8.92681217 50.53651524 C-8.932041 45.64111501 -8.93913864 40.74573207 -8.95043945 35.8503418 C-8.96126834 31.13008897 -8.96727684 26.40985283 -8.96987724 21.68958855 C-8.97173149 19.88457921 -8.97535209 18.07957083 -8.98073006 16.27456856 C-8.98794052 13.75537231 -8.98899094 11.23624585 -8.98852539 8.71704102 C-8.99212067 7.96322647 -8.99571594 7.20941193 -8.99942017 6.43275452 C-8.98442364 -1.01738623 -6.69405729 0.00960042 0 0 Z " fill="#2A5F9C" transform="translate(214.875,641.83203125)"/>
<path d="M0 0 C0.79317627 0.00757324 1.58635254 0.01514648 2.40356445 0.02294922 C8.63961739 0.19782165 13.79061437 1.14343161 19.1875 4.4375 C19.82816406 4.82679688 20.46882813 5.21609375 21.12890625 5.6171875 C26.84068604 9.78691011 30.14898076 15.76729218 32.1875 22.4375 C33.5737024 31.80235122 33.40072315 42.25169402 28.1875 50.4375 C22.99258835 57.41816253 15.8248575 62.30199744 7.12109375 63.79101562 C-3.71668859 64.79376371 -13.424932 63.09178779 -22.0234375 56.171875 C-28.39288713 49.99712471 -30.97233001 42.13477671 -31.29516602 33.38623047 C-31.36670374 24.56996174 -30.30055249 17.71366795 -24.8125 10.4375 C-17.75843175 3.29397798 -9.98929168 -0.13337403 0 0 Z " fill="#285E9C" transform="translate(321.8125,661.5625)"/>
<path d="M0 0 C5.94 0 11.88 0 18 0 C20.33270304 6.27526723 22.66206229 12.55176243 24.98852539 18.8293457 C25.77800462 20.95825497 26.568347 23.08684437 27.35961914 25.21508789 C31.77101162 37.08204058 36.12640379 48.94492465 40 61 C40.20455811 60.42596436 40.40911621 59.85192871 40.61987305 59.26049805 C45.37463432 45.9385759 50.20834413 32.64677024 55.11880493 19.38150024 C55.70713265 17.79149748 56.29451208 16.20114352 56.88095093 14.61044312 C57.70948771 12.36424182 58.54169498 10.119436 59.375 7.875 C59.62566727 7.19383621 59.87633453 6.51267242 60.13459778 5.81086731 C61.88548901 1.11451099 61.88548901 1.11451099 63 0 C65.86267567 -0.07325168 68.700719 -0.09238205 71.5625 -0.0625 C72.36880859 -0.05798828 73.17511719 -0.05347656 74.00585938 -0.04882812 C76.00393756 -0.03700518 78.00197783 -0.01906914 80 0 C77.73664002 8.21147947 74.74055096 16.08053326 71.625 24 C70.55422146 26.73889413 69.48618653 29.47885629 68.41796875 32.21875 C68.141772 32.92608276 67.86557526 33.63341553 67.58100891 34.36218262 C65.50653524 39.68076852 63.45956758 45.0094832 61.42578125 50.34375 C61.1329425 51.11170898 60.84010376 51.87966797 60.53839111 52.67089844 C59.39026264 55.68344975 58.24290829 58.69629164 57.09771729 61.70996094 C56.30462802 63.7966837 55.5098359 65.88275161 54.71484375 67.96875 C54.26230225 69.15919922 53.80976074 70.34964844 53.34350586 71.57617188 C51.96851193 75.08024508 50.48278766 78.54016213 49 82 C43.06 82 37.12 82 31 82 C26.58463056 71.92186976 22.59432863 61.76734633 18.8125 51.4375 C17.68029334 48.36127446 16.54538889 45.28604746 15.41015625 42.2109375 C15.12683441 41.44260086 14.84351257 40.67426422 14.55160522 39.88264465 C12.64344839 34.71603257 10.70677255 29.56096224 8.74609375 24.4140625 C8.49040115 23.7427681 8.23470856 23.07147369 7.9712677 22.37983704 C6.76413732 19.21399156 5.55317238 16.04967192 4.33911133 12.88647461 C3.91267334 11.77022705 3.48623535 10.65397949 3.046875 9.50390625 C2.48758301 8.04706421 2.48758301 8.04706421 1.91699219 6.56079102 C1 4 1 4 0 0 Z " fill="#A2C64D" transform="translate(535,642)"/>
<path d="M0 0 C5.26648291 3.60127117 9.17267943 8.28985001 11.05078125 14.40234375 C11.32414784 17.84788374 11.28329582 21.27993617 11.24609375 24.734375 C11.24326385 25.72612228 11.24043396 26.71786957 11.23751831 27.7396698 C11.22634929 30.89818534 11.20125052 34.05641432 11.17578125 37.21484375 C11.16574722 39.36002194 11.15662211 41.50520458 11.1484375 43.65039062 C11.12642064 48.90115159 11.09191315 54.15169913 11.05078125 59.40234375 C6.76078125 59.40234375 2.47078125 59.40234375 -1.94921875 59.40234375 C-2.60921875 57.09234375 -3.26921875 54.78234375 -3.94921875 52.40234375 C-4.79484375 53.16546875 -5.64046875 53.92859375 -6.51171875 54.71484375 C-13.36382266 60.28514531 -18.84518184 60.74309047 -27.546875 60.80078125 C-33.87815288 60.05934572 -37.8152893 57.11043007 -41.94921875 52.40234375 C-45.0025868 47.44599632 -44.74253369 42.02045592 -43.94921875 36.40234375 C-41.29700793 30.02241931 -36.3950826 27.10566125 -30.31640625 24.3125 C-26.65242682 22.90374223 -23.32065446 22.27126301 -19.40234375 22.0859375 C-18.55800781 22.04404297 -17.71367188 22.00214844 -16.84375 21.95898438 C-15.53470703 21.90000977 -15.53470703 21.90000977 -14.19921875 21.83984375 C-12.86697266 21.77506836 -12.86697266 21.77506836 -11.5078125 21.70898438 C-9.32175912 21.6032076 -7.13559786 21.50111829 -4.94921875 21.40234375 C-6.71001549 16.34235995 -6.71001549 16.34235995 -10.23828125 12.48828125 C-15.74616005 10.28195516 -22.57099817 10.40266623 -28.24609375 12.08203125 C-29.84100402 12.79769612 -31.39936422 13.59372399 -32.94921875 14.40234375 C-33.93921875 14.40234375 -34.92921875 14.40234375 -35.94921875 14.40234375 C-36.45755466 13.15571044 -36.9555302 11.90484988 -37.44921875 10.65234375 C-37.72765625 9.95625 -38.00609375 9.26015625 -38.29296875 8.54296875 C-38.94921875 6.40234375 -38.94921875 6.40234375 -38.94921875 2.40234375 C-27.16969285 -3.42498355 -12.33184722 -5.98488613 0 0 Z " fill="#A3C64D" transform="translate(746.94921875,664.59765625)"/>
<path d="M0 0 C25.47761194 0 25.47761194 0 32.3671875 6.09375 C39.6447944 13.86343709 40.56196614 20.49146208 40.3046875 30.8203125 C39.91371007 38.08732278 37.55290755 42.8019084 32.375 47.875 C22.43688677 55.69128978 12.94641559 54 0 54 C0 36.18 0 18.36 0 0 Z " fill="#F9FBFB" transform="translate(223,656)"/>
<path d="M0 0 C0.86496094 -0.020625 1.72992188 -0.04125 2.62109375 -0.0625 C8.44933837 -0.09745199 14.17647314 0.37701213 19.375 3.25 C20.58886936 6.89160808 20.0424695 7.58165469 18.4375 10.9375 C18.05722656 11.74574219 17.67695313 12.55398438 17.28515625 13.38671875 C16.98480469 14.00160156 16.68445313 14.61648438 16.375 15.25 C15.116875 14.92 13.85875 14.59 12.5625 14.25 C7.21617751 13.06381117 1.83056382 12.64183879 -3.625 13.25 C-4.615 13.91 -5.605 14.57 -6.625 15.25 C-6.87530977 17.83380177 -6.87530977 17.83380177 -6.625 20.25 C-1.98827766 22.74669664 2.4708761 24.66977653 7.5 26.25 C13.19150948 28.09453712 17.16783637 29.82212001 21.25 34.3125 C23.48831024 40.15697674 22.94030796 46.09476341 21.375 52.0625 C18.08369073 57.30802415 13.95175327 60.34146966 8.12890625 62.39453125 C4.01273103 63.33255661 0.26720475 63.63308506 -3.9375 63.625 C-5.05137085 63.62584595 -5.05137085 63.62584595 -6.18774414 63.62670898 C-12.28878281 63.5051267 -17.23784572 62.18523286 -22.625 59.25 C-23.285 58.92 -23.945 58.59 -24.625 58.25 C-24.12769348 53.27693484 -23.07197666 49.61200187 -20.625 45.25 C-14.96163366 47.0519802 -14.96163366 47.0519802 -12.83203125 48.3046875 C-9.83921425 49.58656664 -7.30678485 49.51476353 -4.0625 49.5 C-2.92683594 49.50515625 -1.79117187 49.5103125 -0.62109375 49.515625 C2.55646426 49.47500727 2.55646426 49.47500727 5.375 47.25 C5.6252157 44.16634129 5.6252157 44.16634129 5.375 41.25 C4.80579834 41.06937012 4.23659668 40.88874023 3.65014648 40.70263672 C1.03166692 39.86074515 -1.57761086 38.99313923 -4.1875 38.125 C-5.53038086 37.69960938 -5.53038086 37.69960938 -6.90039062 37.265625 C-13.6036028 35.00666705 -19.16561226 32.09947646 -23.0625 26 C-24.20909151 20.39444149 -24.73087607 14.67118183 -22.0625 9.4375 C-16.61772526 1.21200102 -9.16993614 0.0532362 0 0 Z " fill="#2A609D" transform="translate(388.625,661.75)"/>
<path d="M0 0 C0.83055908 0.0103125 1.66111816 0.020625 2.5168457 0.03125 C8.55480944 0.191963 14.03717223 1.02424791 19.625 3.4375 C19.07644652 8.008779 18.20755197 12.11185795 16.625 16.4375 C15.8515625 16.2209375 15.078125 16.004375 14.28125 15.78125 C8.23818822 14.16577804 2.88378864 12.86851921 -3.375 13.4375 C-4.365 14.0975 -5.355 14.7575 -6.375 15.4375 C-6.6252157 18.52115871 -6.6252157 18.52115871 -6.375 21.4375 C-5.51334229 21.71630005 -5.51334229 21.71630005 -4.63427734 22.00073242 C-2.00136843 22.8614809 0.62413244 23.74301528 3.25 24.625 C4.15363281 24.91697266 5.05726563 25.20894531 5.98828125 25.50976562 C12.71824204 27.79402239 17.45280132 30.17920197 21.5 36.25 C23.4000163 41.63337951 23.13028187 45.71359714 21.5625 51.0625 C18.28114859 56.77840245 13.55016108 60.88379228 7.18359375 62.96875 C-2.08140039 64.66615351 -12.76084918 64.49416405 -21.375 60.4375 C-22.73485646 59.47387758 -24.07612458 58.48186604 -25.375 57.4375 C-24.89809796 55.81183394 -24.41840334 54.18698689 -23.9375 52.5625 C-23.53724609 51.20511719 -23.53724609 51.20511719 -23.12890625 49.8203125 C-22.375 47.4375 -22.375 47.4375 -21.375 45.4375 C-18.78331111 45.93590171 -17.00214768 46.64793764 -14.67578125 47.9609375 C-10.90970692 49.64564294 -8.29269303 49.8071999 -4.1875 49.75 C-2.97707031 49.74613281 -1.76664062 49.74226562 -0.51953125 49.73828125 C2.78513655 49.67232026 2.78513655 49.67232026 5.625 47.4375 C5.87530977 44.85369823 5.87530977 44.85369823 5.625 42.4375 C0.03843452 39.42934936 -5.47408719 37.31811951 -11.54296875 35.46484375 C-16.5871489 33.63502392 -20.11044723 31.56324653 -22.63671875 26.65625 C-24.44653014 21.2172401 -24.65085397 15.31049962 -22.3046875 10.02734375 C-16.82152745 2.01234203 -9.36759477 -0.25693111 0 0 Z " fill="#2C619E" transform="translate(478.375,661.5625)"/>
<path d="M0 0 C1.39456867 0.00574201 2.78910972 0.01875397 4.18359375 0.03515625 C6.63796875 0.05578125 9.09234375 0.07640625 11.62109375 0.09765625 C11.62109375 5.70765625 11.62109375 11.31765625 11.62109375 17.09765625 C17.23109375 17.09765625 22.84109375 17.09765625 28.62109375 17.09765625 C28.62109375 21.38765625 28.62109375 25.67765625 28.62109375 30.09765625 C23.34109375 30.09765625 18.06109375 30.09765625 12.62109375 30.09765625 C12.67219898 34.29850634 12.73518111 38.49568094 12.82861328 42.6953125 C12.85678986 44.12292562 12.87802102 45.55069378 12.89208984 46.97851562 C12.91356767 49.03465957 12.96023349 51.08894627 13.01171875 53.14453125 C13.03266602 54.38041992 13.05361328 55.61630859 13.07519531 56.88964844 C13.71251832 60.6349187 14.61407106 61.84584717 17.62109375 64.09765625 C20.20612455 64.57792542 20.20612455 64.57792542 22.87109375 64.34765625 C23.763125 64.3115625 24.65515625 64.27546875 25.57421875 64.23828125 C26.2496875 64.191875 26.92515625 64.14546875 27.62109375 64.09765625 C29.90680804 72.52622768 29.90680804 72.52622768 29.62109375 77.09765625 C20.72756757 79.68486387 13.5094896 80.24215069 4.85546875 76.42578125 C0.17879212 73.6459385 -1.75370765 69.9875473 -3.42529297 64.93457031 C-4.40405883 60.99645348 -4.60782258 57.68207449 -4.57421875 53.6328125 C-4.57138885 52.95463974 -4.56855896 52.27646698 -4.56564331 51.57774353 C-4.55456041 49.43835859 -4.52947985 47.29941195 -4.50390625 45.16015625 C-4.49386101 43.69857381 -4.48473788 42.23698472 -4.4765625 40.77539062 C-4.4546605 37.21600646 -4.42021491 33.65687422 -4.37890625 30.09765625 C-7.67890625 30.09765625 -10.97890625 30.09765625 -14.37890625 30.09765625 C-14.40577178 28.11856227 -14.42524 26.13936654 -14.44140625 24.16015625 C-14.45300781 23.05800781 -14.46460938 21.95585938 -14.4765625 20.8203125 C-14.37890625 18.09765625 -14.37890625 18.09765625 -13.37890625 17.09765625 C-11.85962587 17.02585661 -10.33723143 17.01373618 -8.81640625 17.03515625 C-7.99011719 17.04417969 -7.16382813 17.05320312 -6.3125 17.0625 C-5.35537109 17.07990234 -5.35537109 17.07990234 -4.37890625 17.09765625 C-4.39050781 15.95425781 -4.40210938 14.81085937 -4.4140625 13.6328125 C-4.42343913 12.14192871 -4.43253946 10.65104316 -4.44140625 9.16015625 C-4.44978516 8.40541016 -4.45816406 7.65066406 -4.46679688 6.87304688 C-4.47543066 4.94771312 -4.43114958 3.02230044 -4.37890625 1.09765625 C-3.37890625 0.09765625 -3.37890625 0.09765625 0 0 Z " fill="#A3C650" transform="translate(666.37890625,646.90234375)"/>
<path d="M0 0 C1.27875 0.00257813 2.5575 0.00515625 3.875 0.0078125 C5.15375 0.00523437 6.4325 0.00265625 7.75 0 C10.875 0.1328125 10.875 0.1328125 11.875 1.1328125 C11.97014592 3.84119336 12.00054932 6.52399763 11.98852539 9.23266602 C11.98867142 10.08137268 11.98881744 10.93007935 11.9889679 11.80450439 C11.98826848 14.62360141 11.98047478 17.44263321 11.97265625 20.26171875 C11.97079217 22.21085067 11.96936822 24.15998305 11.96836853 26.1091156 C11.96454255 31.24988082 11.95471159 36.39061797 11.94366455 41.53137207 C11.93345215 46.77286398 11.92887128 52.0143604 11.92382812 57.25585938 C11.91308939 67.54819142 11.89549195 77.84049524 11.875 88.1328125 C6.595 88.1328125 1.315 88.1328125 -4.125 88.1328125 C-4.14755024 76.80669265 -4.16591463 65.48058759 -4.17681217 54.15445042 C-4.18204119 48.89584586 -4.18913918 43.6372574 -4.20043945 38.37866211 C-4.21126766 33.30828123 -4.21727669 28.23791588 -4.21987724 23.16752434 C-4.22173161 21.22854302 -4.22535245 19.28956259 -4.23073006 17.35058784 C-4.2379396 14.6445949 -4.23899098 11.93866694 -4.23852539 9.23266602 C-4.24212067 8.42274704 -4.24571594 7.61282806 -4.24942017 6.77836609 C-4.23705262 0.18007474 -4.23705262 0.18007474 0 0 Z " fill="#A1C54D" transform="translate(779.125,635.8671875)"/>
<path d="M0 0 C5.61 0 11.22 0 17 0 C17 19.8 17 39.6 17 60 C11.39 60 5.78 60 0 60 C0 40.2 0 20.4 0 0 Z " fill="#30649D" transform="translate(424,664)"/>
<path d="M0 0 C5.28 0 10.56 0 16 0 C16 19.8 16 39.6 16 60 C10.72 60 5.44 60 0 60 C0 40.2 0 20.4 0 0 Z " fill="#A0C44C" transform="translate(625,664)"/>
<path d="M0 0 C5.42462348 1.98207396 8.11546691 4.91807404 11.08203125 9.76953125 C13.28420533 15.12034572 13.06822701 22.14845187 11.0546875 27.5234375 C8.75057118 31.42159655 6.36151415 34.4829516 2 36 C-3.24619574 36.63468524 -7.55592653 36.63014115 -12.4375 34.5 C-17.46872267 29.59149008 -19.23396267 25.03247475 -19.5625 18 C-19.34910013 12.17197591 -17.92624295 8.30954371 -14 4 C-9.51400648 0.01245021 -5.79771664 -0.95082553 0 0 Z " fill="#F6F8F9" transform="translate(326,675)"/>
<path d="M0 0 C0.58455882 9.9375 0.58455882 9.9375 -3 14 C-7.95050422 17.50157615 -13.12705315 17.88496459 -19 17 C-21.625 15.4375 -21.625 15.4375 -23 13 C-23.5625 9.5 -23.5625 9.5 -23 6 C-16.95890375 -0.77335034 -8.37236855 -0.27251833 0 0 Z " fill="#FBFCF6" transform="translate(742,696)"/>
<path d="M0 0 C2.80915461 1.27688846 4.50106764 2.31099817 6.3125 4.8125 C7.60005068 8.90925216 7.5064485 11.91475322 5.6875 15.8125 C4 18 4 18 1 19 C-3.43803275 19.35790587 -5.93578398 19.52078656 -9.9375 17.5625 C-12.46663941 14.42023589 -13.02168422 12.17051734 -13.27734375 8.19140625 C-13 6 -13 6 -10.6875 3 C-6.81615055 0.11899576 -4.83756598 -0.37941694 0 0 Z " fill="#A5C752" transform="translate(636,635)"/>
<path d="M0 0 C2.05859375 0.69921875 2.05859375 0.69921875 4.62109375 2.76171875 C6.488134 6.57697491 6.99885249 9.53521576 6.05859375 13.69921875 C4.12109375 16.69921875 4.12109375 16.69921875 1.05859375 18.69921875 C-3.4161723 19.61359228 -6.85033138 19.1890891 -11.00390625 17.32421875 C-13.56029389 13.86072582 -13.7188364 11.36152874 -13.48046875 7.12109375 C-12.90558513 4.53828329 -12.36614628 3.3635552 -10.50390625 1.51171875 C-6.48844911 -0.53123313 -4.35323338 -0.80017275 0 0 Z " fill="#2B5F9F" transform="translate(435.94140625,635.30078125)"/>
</svg>
